<svg xmlns="http://www.w3.org/2000/svg" width="62" height="55"><path data-name="Forma 1" d="M56.357 21.67H55.23a.908.908 0 1 0 0 1.816h1.127a1.093 1.093 0 1 1 0 2.185h-3.282a1.831 1.831 0 0 0-1.82 1.837v1.529a.908.908 0 0 0 1.816 0v-1.529a.061.061 0 0 1 .006-.021h3.279a2.909 2.909 0 1 0 .001-5.817zm-1.368-7.911h-3.2a.908.908 0 1 0 0 1.816h3.2a1.093 1.093 0 1 1 0 2.185h-4.74a2.909 2.909 0 1 0 0 5.817h1.641a.908.908 0 1 0 0-1.816h-1.641a1.093 1.093 0 1 1 0-2.185h4.74a2.909 2.909 0 1 0 0-5.817zm-18.782 9.159l-1.357-2.432a1.208 1.208 0 0 0-2.176 0l-1.357 2.432a2.119 2.119 0 0 0 0 1.942l1.357 2.432a1.208 1.208 0 0 0 2.176 0l1.357-2.432a2.12 2.12 0 0 0 0-1.942zm-1.591 1.066l-.854 1.53-.854-1.53a.4.4 0 0 1 0-.19l.854-1.53.854 1.53a.4.4 0 0 1 0 .19zm-4.986-1.066l-1.357-2.432a1.208 1.208 0 0 0-2.176 0l-1.357 2.432a2.12 2.12 0 0 0 0 1.942l1.36 2.432a1.208 1.208 0 0 0 2.176 0l1.354-2.432a2.119 2.119 0 0 0 0-1.942zm-1.591 1.066l-.854 1.53-.854-1.53a.4.4 0 0 1 0-.19l.854-1.53.854 1.53a.4.4 0 0 1 0 .19zm-4.989-1.066l-1.357-2.432a1.208 1.208 0 0 0-2.176 0l-1.357 2.432a2.12 2.12 0 0 0 0 1.942l1.357 2.432a1.208 1.208 0 0 0 2.176 0l1.357-2.432a2.12 2.12 0 0 0 0-1.942zm-1.591 1.066l-.859 1.53-.854-1.53a.4.4 0 0 1 0-.19l.854-1.53.854 1.53a.4.4 0 0 1 .004.19zm2.68 5.287a.908.908 0 0 0-.908.908v.487a.908.908 0 0 0 1.816 0v-.488a.908.908 0 0 0-.909-.908zm6.212 0a.908.908 0 0 0-.908.908v.487a.908.908 0 0 0 1.817 0v-.488a.908.908 0 0 0-.91-.908zm6.212 0a.908.908 0 0 0-.908.908v.487a.908.908 0 0 0 1.816 0v-.488a.908.908 0 0 0-.91-.908zm-18.757 0a.908.908 0 0 0-.908.908v.487a.908.908 0 0 0 1.816 0v-.488a.908.908 0 0 0-.914-.908zm43.829 6.968a1.942 1.942 0 0 0-1.576-.745h-4.107Q56 34.393 56 33.272a1.59 1.59 0 0 0-1.589-1.588H44.2a19.074 19.074 0 0 0 2.5-9.829 19.1 19.1 0 0 0-2.486-9.8c-1.689-2.773-3.982-4.3-6.458-4.3a6.154 6.154 0 0 0-2.928.765.915.915 0 0 0-.19-.353 1.586 1.586 0 0 0-.961-.527 6.437 6.437 0 0 0-3.245-4.414A2.129 2.129 0 0 0 28.594 0h-2.449a2.129 2.129 0 0 0-1.83 3.224 6.435 6.435 0 0 0-3.245 4.414 1.585 1.585 0 0 0-.961.527c-.168.193-.174.2-1.482 4.475-.855 2.795-1.856 6.117-2.746 9.114a627.476 627.476 0 0 0-2.725 9.382c-1.317-.84-2.007-2.347-2.445-5.183-.756-4.9-1.613-10.446-7.4-13.269a1.518 1.518 0 0 0-2.058.764L.118 16.083a1.52 1.52 0 0 0 .7 1.95c2.789 1.424 3.334 4.14 4.056 8.82a36.211 36.211 0 0 0 2.19 8.847 12.378 12.378 0 0 0 6.1 6.815 15.467 15.467 0 0 0 4.488 5.88 1.6 1.6 0 0 0 1 .352h4.6a.908.908 0 1 0 0-1.816h-4.52a13.6 13.6 0 0 1-5.027-10.573c.108-1.571 6.748-23.7 7.815-26.922h11.695c.451 1.4 2.131 6.883 3.954 13.03 1.253 4.224 2.1 7.168 2.675 9.221h-4.185a1.59 1.59 0 0 0-1.589 1.588 40.725 40.725 0 0 0 2.137 13.485c-.067.057-.132.116-.2.171h-7.792a.908.908 0 1 0 0 1.816h7.872a1.594 1.594 0 0 0 .822-.231q.292.656.61 1.262h-3.807a1.094 1.094 0 0 0-.968 1.676l1.606 2.78a1.606 1.606 0 0 0 1.331.766h18.712a1.606 1.606 0 0 0 1.332-.769l1.606-2.78a1.094 1.094 0 0 0-.968-1.676h-3.808q.264-.5.509-1.041h3.727a2.833 2.833 0 0 0 2.609-1.966l.592-2.068a.909.909 0 0 0-1.747-.5l-.592 2.072a1.021 1.021 0 0 1-.861.65h-2.984q.163-.444.314-.9H56.1a.908.908 0 0 0 .874-.658l1.711-5.985a.908.908 0 0 0-.873-1.157h-2.067q.048-.45.086-.9h4.226a.305.305 0 0 1 .124.02.236.236 0 0 1-.011.13l-.749 2.622a.909.909 0 0 0 1.747.5l.749-2.622a1.94 1.94 0 0 0-.283-1.734zm-49.343 3.628a12.135 12.135 0 0 1-3.555-4.879 34.778 34.778 0 0 1-2.06-8.414C6.009 22.25 5.43 18.5 1.9 16.546l.9-2.09c4.676 2.443 5.377 6.978 6.117 11.773.418 2.706 1.171 5.374 3.744 6.712a16.412 16.412 0 0 0-.772 3.4 15.555 15.555 0 0 0 .403 3.526zM26.144 1.815h2.45a.317.317 0 1 1 0 .633h-2.45a.317.317 0 1 1 0-.633zm-3.2 5.8a4.6 4.6 0 0 1 8.858 0H22.94zm15.915 14.159c-.775-2.613-1.63-5.458-2.4-7.983a2.1 2.1 0 0 1 1.286-.822A2.625 2.625 0 0 1 39.4 14.24a.908.908 0 0 0 1.462-1.078 4.17 4.17 0 0 0-3.115-2.008 3.124 3.124 0 0 0-1.872.718c-.2-.641-.356-1.164-.489-1.594a4.427 4.427 0 0 1 2.361-.709c1.817 0 3.56 1.218 4.906 3.429a17.27 17.27 0 0 1 2.221 8.858A16.467 16.467 0 0 1 42 31.684h-.271c-.141-.51-.3-1.077-.48-1.709a15.486 15.486 0 0 0 2.039-8.12 18.211 18.211 0 0 0-.543-4.506.908.908 0 0 0-1.76.45 16.392 16.392 0 0 1 .487 4.056 15.308 15.308 0 0 1-.96 5.549 907.818 907.818 0 0 0-1.653-5.63zm16.294 29.817l-.92 1.593H35.842l-.92-1.593h20.231zm-4.676-1.816H39.6c-2.309-3.841-3.679-9.8-3.71-16.276h18.3c-.034 6.473-1.404 12.435-3.713 16.277zm6.129-9.746L55.414 44.2h-.753a38.381 38.381 0 0 0 .853-4.169h1.092zm-3.613-.667l-1.136-2.169a1.186 1.186 0 0 0-2.171 0l-1.135 2.169a2.211 2.211 0 0 0 0 1.914l1.135 2.169a1.186 1.186 0 0 0 2.171 0l1.136-2.169a2.212 2.212 0 0 0 0-1.914zm-1.609 1.072l-.612 1.166-.608-1.16a.5.5 0 0 1 0-.239l.612-1.168.608 1.16a.5.5 0 0 1-.001.241zm-4.124-1.072l-1.135-2.169a1.186 1.186 0 0 0-2.171 0l-1.136 2.169a2.213 2.213 0 0 0 0 1.915l1.136 2.169a1.186 1.186 0 0 0 2.171 0l1.135-2.168a2.212 2.212 0 0 0 0-1.916zm-1.61 1.072l-.611 1.166-.608-1.16a.5.5 0 0 1 0-.239l.612-1.168.608 1.16a.5.5 0 0 1-.001.241zm-4.127-1.073l-1.136-2.169a1.186 1.186 0 0 0-2.171 0l-1.136 2.169a2.212 2.212 0 0 0 0 1.915l1.136 2.169a1.186 1.186 0 0 0 2.171 0l1.136-2.168a2.212 2.212 0 0 0 .001-1.915zm-1.61 1.073L39.3 41.6l-.608-1.16a.5.5 0 0 1 0-.239l.608-1.166.61 1.165a.493.493 0 0 1 .004.234zm2.469 4.819a.908.908 0 0 0-.908.908v.452a.908.908 0 0 0 1.816 0v-.452a.908.908 0 0 0-.907-.908zm5.415 0a.908.908 0 0 0-.908.908v.452a.908.908 0 0 0 1.816 0v-.452a.908.908 0 0 0-.905-.908z" fill="#fff" fill-rule="evenodd"/></svg>